EBGaramondVF-DisplayCompressed_Regular.ufo
<glyph name="percent" format="1">
  <advance width="650"/>
  <unicode hex="0025"/>
  <outline>
    <contour>
      <point x="85" y="-59" type="curve" smooth="yes"/>
      <point x="588" y="609" type="line"/>
      <point x="590" y="611"/>
      <point x="590" y="611"/>
      <point x="590" y="612" type="curve" smooth="yes"/>
      <point x="590" y="612"/>
      <point x="588" y="614"/>
      <point x="586" y="614" type="curve" smooth="yes"/>
      <point x="581" y="614"/>
      <point x="578" y="613"/>
      <point x="576" y="611" type="curve" smooth="yes"/>
      <point x="72" y="-58" type="line"/>
      <point x="72" y="-58" type="line" smooth="yes"/>
      <point x="72" y="-61"/>
      <point x="74" y="-62"/>
      <point x="76" y="-62" type="curve" smooth="yes"/>
      <point x="79" y="-62"/>
      <point x="82" y="-62"/>
    </contour>
    <contour>
      <point x="272" y="414" type="curve" smooth="yes"/>
      <point x="272" y="489"/>
      <point x="232" y="568"/>
      <point x="157" y="568" type="curve" smooth="yes"/>
      <point x="75" y="568"/>
      <point x="24" y="486"/>
      <point x="24" y="403" type="curve" smooth="yes"/>
      <point x="24" y="325"/>
      <point x="63" y="241"/>
      <point x="141" y="241" type="curve" smooth="yes"/>
      <point x="228" y="241"/>
      <point x="272" y="328"/>
    </contour>
    <contour>
      <point x="73" y="415" type="curve" smooth="yes"/>
      <point x="73" y="479"/>
      <point x="85" y="558"/>
      <point x="147" y="558" type="curve" smooth="yes"/>
      <point x="214" y="558"/>
      <point x="223" y="471"/>
      <point x="223" y="403" type="curve" smooth="yes"/>
      <point x="223" y="335"/>
      <point x="217" y="248"/>
      <point x="151" y="248" type="curve" smooth="yes"/>
      <point x="80" y="248"/>
      <point x="73" y="342"/>
    </contour>
    <contour>
      <point x="626" y="153" type="curve" smooth="yes"/>
      <point x="626" y="228"/>
      <point x="586" y="307"/>
      <point x="511" y="307" type="curve" smooth="yes"/>
      <point x="429" y="307"/>
      <point x="377" y="225"/>
      <point x="377" y="142" type="curve" smooth="yes"/>
      <point x="377" y="64"/>
      <point x="417" y="-20"/>
      <point x="494" y="-20" type="curve" smooth="yes"/>
      <point x="581" y="-20"/>
      <point x="626" y="67"/>
    </contour>
    <contour>
      <point x="427" y="154" type="curve" smooth="yes"/>
      <point x="427" y="218"/>
      <point x="439" y="297"/>
      <point x="501" y="297" type="curve" smooth="yes"/>
      <point x="568" y="297"/>
      <point x="577" y="210"/>
      <point x="577" y="142" type="curve" smooth="yes"/>
      <point x="577" y="74"/>
      <point x="571" y="-13"/>
      <point x="505" y="-13" type="curve" smooth="yes"/>
      <point x="434" y="-13"/>
      <point x="427" y="81"/>
    </contour>
  </outline>
</glyph>
<glyph name="comma" format="1">
  <advance width="218"/>
  <unicode hex="002C"/>
  <outline>
    <contour>
      <point x="175" y="13" type="curve" smooth="yes"/>
      <point x="175" y="42"/>
      <point x="136" y="65"/>
      <point x="84" y="65" type="curve" smooth="yes"/>
      <point x="60" y="65"/>
      <point x="38" y="50"/>
      <point x="38" y="27" type="curve" smooth="yes"/>
      <point x="38" y="9"/>
      <point x="54" y="-4"/>
      <point x="79" y="-12" type="curve" smooth="yes"/>
      <point x="107" y="-17"/>
      <point x="141" y="-22"/>
      <point x="141" y="-29" type="curve" smooth="yes"/>
      <point x="141" y="-54"/>
      <point x="84" y="-89"/>
      <point x="40" y="-89" type="curve" smooth="yes"/>
      <point x="30" y="-89"/>
      <point x="25" y="-92"/>
      <point x="25" y="-96" type="curve" smooth="yes"/>
      <point x="25" y="-100"/>
      <point x="32" y="-103"/>
      <point x="45" y="-103" type="curve" smooth="yes"/>
      <point x="95" y="-104"/>
      <point x="175" y="-57"/>
    </contour>
  </outline>
</glyph>
<glyph name="hyphen" format="1">
  <advance width="274"/>
  <unicode hex="002D"/>
  <outline>
    <contour>
      <point x="224" y="193" type="curve" smooth="yes"/>
      <point x="240" y="195"/>
      <point x="245" y="200"/>
      <point x="245" y="203" type="curve" smooth="yes"/>
      <point x="245" y="205"/>
      <point x="241" y="205"/>
      <point x="237" y="205" type="curve"/>
      <point x="173" y="200"/>
      <point x="109" y="196"/>
      <point x="45" y="191" type="curve"/>
      <point x="35" y="191"/>
      <point x="29" y="186"/>
      <point x="29" y="181" type="curve" smooth="yes"/>
      <point x="29" y="181"/>
      <point x="30" y="181"/>
      <point x="35" y="181" type="curve"/>
      <point x="98" y="185"/>
      <point x="161" y="190"/>
    </contour>
  </outline>
</glyph>
<glyph name="one" format="1">
  <advance width="450"/>
  <unicode hex="0031"/>
  <outline>
    <contour>
      <point x="238" y="2" type="curve" smooth="yes"/>
      <point x="289" y="2"/>
      <point x="324" y="-3"/>
      <point x="379" y="-3" type="curve" smooth="yes"/>
      <point x="386" y="-3"/>
      <point x="392" y="0"/>
      <point x="392" y="2" type="curve" smooth="yes"/>
      <point x="392" y="3"/>
      <point x="385" y="6"/>
      <point x="375" y="7" type="curve" smooth="yes"/>
      <point x="293" y="13"/>
      <point x="269" y="13"/>
      <point x="269" y="75" type="curve" smooth="yes"/>
      <point x="269" y="510" type="line" smooth="yes"/>
      <point x="269" y="538"/>
      <point x="270" y="561"/>
      <point x="273" y="581" type="curve"/>
      <point x="274" y="586"/>
      <point x="267" y="590"/>
      <point x="261" y="590" type="curve" smooth="yes"/>
      <point x="259" y="590"/>
      <point x="255" y="590"/>
      <point x="242" y="567" type="curve" smooth="yes"/>
      <point x="223" y="532"/>
      <point x="190" y="514"/>
      <point x="119" y="515" type="curve" smooth="yes"/>
      <point x="106" y="515"/>
      <point x="96" y="514"/>
      <point x="96" y="509" type="curve" smooth="yes"/>
      <point x="96" y="504"/>
      <point x="109" y="503"/>
      <point x="122" y="503" type="curve" smooth="yes"/>
      <point x="194" y="503"/>
      <point x="206" y="495"/>
      <point x="206" y="446" type="curve" smooth="yes"/>
      <point x="206" y="78" type="line" smooth="yes"/>
      <point x="206" y="14"/>
      <point x="172" y="11"/>
      <point x="96" y="7" type="curve" smooth="yes"/>
      <point x="88" y="6"/>
      <point x="81" y="3"/>
      <point x="81" y="2" type="curve" smooth="yes"/>
      <point x="81" y="0"/>
      <point x="85" y="-3"/>
      <point x="95" y="-3" type="curve" smooth="yes"/>
      <point x="147" y="-3"/>
      <point x="187" y="2"/>
    </contour>
  </outline>
</glyph>
<glyph name="two" format="1">
  <advance width="450"/>
  <unicode hex="0032"/>
  <outline>
    <contour>
      <point x="418" y="21" type="curve" smooth="yes"/>
      <point x="428" y="71"/>
      <point x="449" y="142"/>
      <point x="449" y="151" type="curve" smooth="yes"/>
      <point x="449" y="156"/>
      <point x="450" y="163"/>
      <point x="447" y="163" type="curve" smooth="yes"/>
      <point x="443" y="163"/>
      <point x="442" y="159"/>
      <point x="440" y="150" type="curve" smooth="yes"/>
      <point x="423" y="83"/>
      <point x="411" y="66"/>
      <point x="347" y="64" type="curve" smooth="yes"/>
      <point x="286" y="62"/>
      <point x="252" y="61"/>
      <point x="214" y="61" type="curve" smooth="yes"/>
      <point x="177" y="61"/>
      <point x="128" y="60"/>
      <point x="106" y="64" type="curve" smooth="yes"/>
      <point x="98" y="65"/>
      <point x="92" y="66"/>
      <point x="92" y="71" type="curve" smooth="yes"/>
      <point x="138" y="114"/>
      <point x="171" y="135"/>
      <point x="216" y="175" type="curve" smooth="yes"/>
      <point x="315" y="263"/>
      <point x="386" y="344"/>
      <point x="386" y="453" type="curve" smooth="yes"/>
      <point x="386" y="518"/>
      <point x="331" y="582"/>
      <point x="236" y="582" type="curve" smooth="yes"/>
      <point x="130" y="582"/>
      <point x="85" y="492"/>
      <point x="63" y="438" type="curve" smooth="yes"/>
      <point x="61" y="436"/>
      <point x="57" y="428"/>
      <point x="59" y="428" type="curve" smooth="yes"/>
      <point x="63" y="428"/>
      <point x="64" y="434"/>
      <point x="66" y="438" type="curve"/>
      <point x="101" y="491"/>
      <point x="150" y="519"/>
      <point x="207" y="519" type="curve" smooth="yes"/>
      <point x="287" y="519"/>
      <point x="320" y="472"/>
      <point x="320" y="409" type="curve" smooth="yes"/>
      <point x="320" y="323"/>
      <point x="274" y="234"/>
      <point x="189" y="159" type="curve" smooth="yes"/>
      <point x="31" y="26" type="line" smooth="yes"/>
      <point x="25" y="20"/>
      <point x="23" y="19"/>
      <point x="23" y="14" type="curve" smooth="yes"/>
      <point x="23" y="8"/>
      <point x="38" y="-2"/>
      <point x="43" y="-2" type="curve" smooth="yes"/>
      <point x="63" y="-2"/>
      <point x="215" y="3"/>
      <point x="264" y="3" type="curve" smooth="yes"/>
      <point x="313" y="3"/>
      <point x="376" y="-3"/>
      <point x="396" y="-3" type="curve" smooth="yes"/>
      <point x="403" y="-3"/>
      <point x="414" y="0"/>
    </contour>
  </outline>
</glyph>
<glyph name="five" format="1">
  <advance width="450"/>
  <unicode hex="0035"/>
  <outline>
    <contour>
      <point x="292" y="10" type="curve" smooth="yes"/>
      <point x="361" y="50"/>
      <point x="404" y="111"/>
      <point x="404" y="179" type="curve" smooth="yes"/>
      <point x="404" y="250"/>
      <point x="367" y="295"/>
      <point x="296" y="331" type="curve" smooth="yes"/>
      <point x="250" y="353"/>
      <point x="173" y="375"/>
      <point x="99" y="392" type="curve" smooth="yes"/>
      <point x="87" y="395"/>
      <point x="85" y="401"/>
      <point x="86" y="410" type="curve"/>
      <point x="87" y="424"/>
      <point x="111" y="480"/>
      <point x="128" y="483" type="curve" smooth="yes"/>
      <point x="158" y="487"/>
      <point x="269" y="494"/>
      <point x="321" y="500" type="curve" smooth="yes"/>
      <point x="338" y="502"/>
      <point x="349" y="512"/>
      <point x="358" y="532" type="curve" smooth="yes"/>
      <point x="363" y="542"/>
      <point x="369" y="554"/>
      <point x="375" y="565" type="curve" smooth="yes"/>
      <point x="380" y="574"/>
      <point x="374" y="583"/>
      <point x="364" y="582" type="curve" smooth="yes"/>
      <point x="286" y="575"/>
      <point x="218" y="564"/>
      <point x="157" y="549" type="curve" smooth="yes"/>
      <point x="136" y="544"/>
      <point x="123" y="534"/>
      <point x="116" y="515" type="curve" smooth="yes"/>
      <point x="102" y="475"/>
      <point x="70" y="409"/>
      <point x="70" y="375" type="curve" smooth="yes"/>
      <point x="70" y="358"/>
      <point x="75" y="341"/>
      <point x="92" y="330" type="curve"/>
      <point x="267" y="298"/>
      <point x="339" y="240"/>
      <point x="339" y="163" type="curve" smooth="yes"/>
      <point x="339" y="62"/>
      <point x="294" y="-11"/>
      <point x="99" y="-26" type="curve" smooth="yes"/>
      <point x="82" y="-27"/>
      <point x="63" y="-29"/>
      <point x="63" y="-33" type="curve" smooth="yes"/>
      <point x="63" y="-36"/>
      <point x="85" y="-38"/>
      <point x="100" y="-38" type="curve" smooth="yes"/>
      <point x="174" y="-38"/>
      <point x="240" y="-20"/>
    </contour>
  </outline>
</glyph>
<glyph name="six" format="1">
  <advance width="450"/>
  <unicode hex="0036"/>
  <outline>
    <contour>
      <point x="421" y="171" type="curve" smooth="yes"/>
      <point x="421" y="243"/>
      <point x="363" y="291"/>
      <point x="298" y="291" type="curve" smooth="yes"/>
      <point x="274" y="291"/>
      <point x="247" y="284"/>
      <point x="217" y="269" type="curve" smooth="yes"/>
      <point x="204" y="264"/>
      <point x="191" y="255"/>
      <point x="181" y="248" type="curve" smooth="yes"/>
      <point x="172" y="241"/>
      <point x="175" y="233"/>
      <point x="188" y="241" type="curve" smooth="yes"/>
      <point x="210" y="254"/>
      <point x="246" y="268"/>
      <point x="267" y="268" type="curve" smooth="yes"/>
      <point x="320" y="268"/>
      <point x="358" y="206"/>
      <point x="358" y="129" type="curve" smooth="yes"/>
      <point x="358" y="35"/>
      <point x="308" y="-9"/>
      <point x="244" y="-8" type="curve" smooth="yes"/>
      <point x="188" y="-7"/>
      <point x="114" y="51"/>
      <point x="112" y="161" type="curve" smooth="yes"/>
      <point x="109" y="281"/>
      <point x="150" y="401"/>
      <point x="247" y="498" type="curve" smooth="yes"/>
      <point x="286" y="533"/>
      <point x="336" y="565"/>
      <point x="391" y="586" type="curve" smooth="yes"/>
      <point x="398" y="589"/>
      <point x="413" y="589"/>
      <point x="417" y="595" type="curve" smooth="yes"/>
      <point x="419" y="596"/>
      <point x="412" y="601"/>
      <point x="400" y="597" type="curve" smooth="yes"/>
      <point x="342" y="577"/>
      <point x="289" y="558"/>
      <point x="238" y="521" type="curve" smooth="yes"/>
      <point x="106" y="424"/>
      <point x="41" y="304"/>
      <point x="41" y="178" type="curve" smooth="yes"/>
      <point x="41" y="48"/>
      <point x="136" y="-16"/>
      <point x="231" y="-16" type="curve" smooth="yes"/>
      <point x="325" y="-16"/>
      <point x="421" y="57"/>
    </contour>
  </outline>
</glyph>
<glyph name="question" format="1">
  <advance width="376"/>
  <unicode hex="003F"/>
  <outline>
    <contour>
      <point x="140" y="205" type="curve" smooth="yes"/>
      <point x="148" y="241"/>
      <point x="154" y="274"/>
      <point x="183" y="292" type="curve" smooth="yes"/>
      <point x="213" y="312"/>
      <point x="226" y="319"/>
      <point x="265" y="341" type="curve" smooth="yes"/>
      <point x="288" y="354"/>
      <point x="302" y="377"/>
      <point x="302" y="423" type="curve" smooth="yes"/>
      <point x="302" y="473"/>
      <point x="268" y="557"/>
      <point x="212" y="612" type="curve" smooth="yes"/>
      <point x="179" y="644"/>
      <point x="143" y="661"/>
      <point x="110" y="661" type="curve" smooth="yes"/>
      <point x="93" y="661"/>
      <point x="70" y="644"/>
      <point x="70" y="625" type="curve" smooth="yes"/>
      <point x="70" y="598"/>
      <point x="91" y="569"/>
      <point x="112" y="569" type="curve" smooth="yes"/>
      <point x="122" y="569"/>
      <point x="129" y="570"/>
      <point x="136" y="571" type="curve" smooth="yes"/>
      <point x="143" y="572"/>
      <point x="150" y="573"/>
      <point x="159" y="573" type="curve" smooth="yes"/>
      <point x="247" y="572"/>
      <point x="285" y="520"/>
      <point x="285" y="458" type="curve" smooth="yes"/>
      <point x="285" y="428"/>
      <point x="252" y="401"/>
      <point x="212" y="386" type="curve" smooth="yes"/>
      <point x="130" y="344"/>
      <point x="99" y="322"/>
      <point x="99" y="290" type="curve" smooth="yes"/>
      <point x="99" y="249"/>
      <point x="114" y="227"/>
      <point x="120" y="207" type="curve" smooth="yes"/>
      <point x="125" y="192"/>
      <point x="129" y="181"/>
      <point x="132" y="181" type="curve" smooth="yes"/>
      <point x="135" y="181"/>
      <point x="138" y="195"/>
    </contour>
    <contour>
      <point x="210" y="46" type="curve" smooth="yes"/>
      <point x="210" y="79"/>
      <point x="183" y="106"/>
      <point x="150" y="106" type="curve" smooth="yes"/>
      <point x="117" y="106"/>
      <point x="90" y="79"/>
      <point x="90" y="46" type="curve" smooth="yes"/>
      <point x="90" y="13"/>
      <point x="117" y="-14"/>
      <point x="150" y="-14" type="curve" smooth="yes"/>
      <point x="183" y="-14"/>
      <point x="210" y="13"/>
    </contour>
  </outline>
</glyph>
<glyph name="E" format="1">
  <advance width="549"/>
  <unicode hex="0045"/>
  <outline>
    <contour>
      <point x="176" y="1" type="curve" smooth="yes"/>
      <point x="273" y="1"/>
      <point x="355" y="-5"/>
      <point x="479" y="-5" type="curve" smooth="yes"/>
      <point x="487" y="-5"/>
      <point x="489" y="3"/>
      <point x="493" y="12" type="curve" smooth="yes"/>
      <point x="505" y="39"/>
      <point x="524" y="110"/>
      <point x="524" y="128" type="curve" smooth="yes"/>
      <point x="524" y="136"/>
      <point x="522" y="141"/>
      <point x="515" y="142" type="curve" smooth="yes"/>
      <point x="509" y="143"/>
      <point x="504" y="135"/>
      <point x="500" y="125" type="curve" smooth="yes"/>
      <point x="479" y="75"/>
      <point x="464" y="46"/>
      <point x="444" y="28" type="curve" smooth="yes"/>
      <point x="423" y="12"/>
      <point x="397" y="7"/>
      <point x="356" y="7" type="curve" smooth="yes"/>
      <point x="275" y="7" type="line" smooth="yes"/>
      <point x="230" y="7"/>
      <point x="209" y="23"/>
      <point x="209" y="74" type="curve" smooth="yes"/>
      <point x="209" y="279" type="line" smooth="yes"/>
      <point x="209" y="302"/>
      <point x="220" y="305"/>
      <point x="243" y="305" type="curve" smooth="yes"/>
      <point x="347" y="305" type="line" smooth="yes"/>
      <point x="371" y="305"/>
      <point x="384" y="279"/>
      <point x="391" y="248" type="curve" smooth="yes"/>
      <point x="396" y="227"/>
      <point x="399" y="216"/>
      <point x="408" y="216" type="curve" smooth="yes"/>
      <point x="415" y="216"/>
      <point x="414" y="224"/>
      <point x="414" y="233" type="curve" smooth="yes"/>
      <point x="414" y="241"/>
      <point x="412" y="290"/>
      <point x="412" y="310" type="curve" smooth="yes"/>
      <point x="412" y="326"/>
      <point x="415" y="371"/>
      <point x="415" y="380" type="curve" smooth="yes"/>
      <point x="415" y="390"/>
      <point x="410" y="396"/>
      <point x="405" y="396" type="curve" smooth="yes"/>
      <point x="398" y="396"/>
      <point x="397" y="389"/>
      <point x="393" y="374" type="curve" smooth="yes"/>
      <point x="383" y="337"/>
      <point x="373" y="313"/>
      <point x="338" y="313" type="curve" smooth="yes"/>
      <point x="227" y="313" type="line" smooth="yes"/>
      <point x="217" y="313"/>
      <point x="209" y="323"/>
      <point x="209" y="335" type="curve" smooth="yes"/>
      <point x="209" y="570" type="line" smooth="yes"/>
      <point x="209" y="585"/>
      <point x="221" y="592"/>
      <point x="247" y="592" type="curve" smooth="yes"/>
      <point x="394" y="592" type="line" smooth="yes"/>
      <point x="414" y="592"/>
      <point x="427" y="584"/>
      <point x="441" y="553" type="curve" smooth="yes"/>
      <point x="447" y="540"/>
      <point x="458" y="514"/>
      <point x="469" y="490" type="curve" smooth="yes"/>
      <point x="474" y="478"/>
      <point x="477" y="476"/>
      <point x="482" y="476" type="curve" smooth="yes"/>
      <point x="488" y="476"/>
      <point x="490" y="479"/>
      <point x="490" y="491" type="curve" smooth="yes"/>
      <point x="490" y="518"/>
      <point x="482" y="556"/>
      <point x="476" y="588" type="curve"/>
      <point x="474" y="599"/>
      <point x="466" y="603"/>
      <point x="458" y="603" type="curve" smooth="yes"/>
      <point x="453" y="603"/>
      <point x="419" y="602"/>
      <point x="375" y="601" type="curve" smooth="yes"/>
      <point x="335" y="601"/>
      <point x="286" y="600"/>
      <point x="243" y="600" type="curve" smooth="yes"/>
      <point x="176" y="600"/>
      <point x="145" y="603"/>
      <point x="72" y="603" type="curve" smooth="yes"/>
      <point x="56" y="603"/>
      <point x="44" y="602"/>
      <point x="44" y="599" type="curve" smooth="yes"/>
      <point x="44" y="595"/>
      <point x="54" y="593"/>
      <point x="77" y="591" type="curve" smooth="yes"/>
      <point x="127" y="588"/>
      <point x="144" y="581"/>
      <point x="144" y="563" type="curve" smooth="yes"/>
      <point x="144" y="64" type="line" smooth="yes"/>
      <point x="144" y="21"/>
      <point x="131" y="12"/>
      <point x="70" y="7" type="curve" smooth="yes"/>
      <point x="47" y="6"/>
      <point x="37" y="3"/>
      <point x="37" y="0" type="curve" smooth="yes"/>
      <point x="37" y="-4"/>
      <point x="49" y="-5"/>
      <point x="65" y="-5" type="curve" smooth="yes"/>
      <point x="117" y="-5"/>
      <point x="133" y="1"/>
    </contour>
  </outline>
</glyph>
<glyph name="H" format="1">
  <advance width="778"/>
  <unicode hex="0048"/>
  <outline>
    <contour>
      <point x="167" y="-4" type="curve" smooth="yes"/>
      <point x="207" y="-4"/>
      <point x="224" y="-5"/>
      <point x="274" y="-5" type="curve" smooth="yes"/>
      <point x="292" y="-5"/>
      <point x="303" y="-4"/>
      <point x="303" y="-1" type="curve" smooth="yes"/>
      <point x="303" y="1"/>
      <point x="294" y="3"/>
      <point x="271" y="6" type="curve" smooth="yes"/>
      <point x="226" y="8"/>
      <point x="194" y="14"/>
      <point x="194" y="29" type="curve" smooth="yes"/>
      <point x="194" y="284" type="line" smooth="yes"/>
      <point x="194" y="293"/>
      <point x="195" y="296"/>
      <point x="200" y="296" type="curve" smooth="yes"/>
      <point x="579" y="296" type="line" smooth="yes"/>
      <point x="586" y="296"/>
      <point x="586" y="288"/>
      <point x="586" y="281" type="curve" smooth="yes"/>
      <point x="586" y="27" type="line" smooth="yes"/>
      <point x="586" y="13"/>
      <point x="562" y="8"/>
      <point x="517" y="6" type="curve" smooth="yes"/>
      <point x="494" y="3"/>
      <point x="485" y="1"/>
      <point x="485" y="-1" type="curve" smooth="yes"/>
      <point x="485" y="-4"/>
      <point x="496" y="-5"/>
      <point x="514" y="-5" type="curve" smooth="yes"/>
      <point x="563" y="-5"/>
      <point x="576" y="-4"/>
      <point x="613" y="-4" type="curve" smooth="yes"/>
      <point x="648" y="-4"/>
      <point x="659" y="-5"/>
      <point x="709" y="-5" type="curve" smooth="yes"/>
      <point x="727" y="-5"/>
      <point x="738" y="-4"/>
      <point x="738" y="-1" type="curve" smooth="yes"/>
      <point x="738" y="1"/>
      <point x="729" y="3"/>
      <point x="706" y="6" type="curve" smooth="yes"/>
      <point x="657" y="8"/>
      <point x="651" y="13"/>
      <point x="651" y="28" type="curve" smooth="yes"/>
      <point x="651" y="567" type="line" smooth="yes"/>
      <point x="651" y="582"/>
      <point x="654" y="589"/>
      <point x="704" y="591" type="curve" smooth="yes"/>
      <point x="727" y="592"/>
      <point x="737" y="594"/>
      <point x="737" y="597" type="curve" smooth="yes"/>
      <point x="737" y="599"/>
      <point x="727" y="601"/>
      <point x="708" y="601" type="curve" smooth="yes"/>
      <point x="658" y="601"/>
      <point x="653" y="600"/>
      <point x="621" y="600" type="curve" smooth="yes"/>
      <point x="582" y="600"/>
      <point x="565" y="601"/>
      <point x="515" y="601" type="curve" smooth="yes"/>
      <point x="497" y="601"/>
      <point x="486" y="599"/>
      <point x="486" y="597" type="curve" smooth="yes"/>
      <point x="486" y="594"/>
      <point x="496" y="592"/>
      <point x="519" y="591" type="curve" smooth="yes"/>
      <point x="570" y="589"/>
      <point x="586" y="579"/>
      <point x="586" y="567" type="curve" smooth="yes"/>
      <point x="586" y="317" type="line" smooth="yes"/>
      <point x="586" y="308"/>
      <point x="583" y="304"/>
      <point x="577" y="304" type="curve" smooth="yes"/>
      <point x="208" y="304" type="line" smooth="yes"/>
      <point x="201" y="304"/>
      <point x="194" y="306"/>
      <point x="194" y="315" type="curve" smooth="yes"/>
      <point x="194" y="567" type="line" smooth="yes"/>
      <point x="194" y="582"/>
      <point x="213" y="589"/>
      <point x="262" y="591" type="curve" smooth="yes"/>
      <point x="285" y="592"/>
      <point x="295" y="594"/>
      <point x="295" y="597" type="curve" smooth="yes"/>
      <point x="295" y="599"/>
      <point x="286" y="601"/>
      <point x="266" y="601" type="curve" smooth="yes"/>
      <point x="216" y="601"/>
      <point x="204" y="600"/>
      <point x="167" y="600" type="curve" smooth="yes"/>
      <point x="132" y="600"/>
      <point x="121" y="601"/>
      <point x="72" y="601" type="curve" smooth="yes"/>
      <point x="52" y="601"/>
      <point x="43" y="599"/>
      <point x="43" y="597" type="curve" smooth="yes"/>
      <point x="43" y="594"/>
      <point x="53" y="592"/>
      <point x="76" y="591" type="curve" smooth="yes"/>
      <point x="126" y="589"/>
      <point x="129" y="582"/>
      <point x="129" y="567" type="curve" smooth="yes"/>
      <point x="129" y="27" type="line" smooth="yes"/>
      <point x="129" y="11"/>
      <point x="119" y="8"/>
      <point x="69" y="6" type="curve" smooth="yes"/>
      <point x="46" y="3"/>
      <point x="37" y="1"/>
      <point x="37" y="-1" type="curve" smooth="yes"/>
      <point x="37" y="-4"/>
      <point x="48" y="-5"/>
      <point x="66" y="-5" type="curve" smooth="yes"/>
      <point x="116" y="-5"/>
      <point x="130" y="-4"/>
    </contour>
  </outline>
</glyph>
<glyph name="J" format="1">
  <advance width="328"/>
  <unicode hex="004A"/>
  <outline>
    <contour>
      <point x="128" y="-143" type="curve" smooth="yes"/>
      <point x="157" y="-104"/>
      <point x="195" y="-37"/>
      <point x="195" y="41" type="curve" smooth="yes"/>
      <point x="195" y="560" type="line" smooth="yes"/>
      <point x="195" y="579"/>
      <point x="219" y="586"/>
      <point x="269" y="589" type="curve" smooth="yes"/>
      <point x="292" y="591"/>
      <point x="302" y="594"/>
      <point x="302" y="598" type="curve" smooth="yes"/>
      <point x="302" y="601"/>
      <point x="290" y="602"/>
      <point x="273" y="602" type="curve" smooth="yes"/>
      <point x="223" y="602"/>
      <point x="209" y="601"/>
      <point x="168" y="601" type="curve" smooth="yes"/>
      <point x="125" y="601"/>
      <point x="109" y="602"/>
      <point x="59" y="602" type="curve" smooth="yes"/>
      <point x="42" y="602"/>
      <point x="30" y="601"/>
      <point x="30" y="598" type="curve" smooth="yes"/>
      <point x="30" y="594"/>
      <point x="40" y="591"/>
      <point x="63" y="589" type="curve" smooth="yes"/>
      <point x="113" y="586"/>
      <point x="130" y="579"/>
      <point x="130" y="560" type="curve" smooth="yes"/>
      <point x="130" y="-1" type="line" smooth="yes"/>
      <point x="130" y="-113"/>
      <point x="111" y="-183"/>
      <point x="64" y="-183" type="curve" smooth="yes"/>
      <point x="47" y="-183"/>
      <point x="34" y="-172"/>
      <point x="17" y="-140" type="curve" smooth="yes"/>
      <point x="3" y="-114"/>
      <point x="-13" y="-104"/>
      <point x="-30" y="-104" type="curve" smooth="yes"/>
      <point x="-45" y="-104"/>
      <point x="-69" y="-128"/>
      <point x="-69" y="-151" type="curve" smooth="yes"/>
      <point x="-69" y="-182"/>
      <point x="-36" y="-200"/>
      <point x="28" y="-200" type="curve" smooth="yes"/>
      <point x="72" y="-200"/>
      <point x="103" y="-177"/>
    </contour>
  </outline>
</glyph>
<glyph name="K" format="1">
  <advance width="644"/>
  <unicode hex="004B"/>
  <outline>
    <contour>
      <point x="178" y="2" type="curve" smooth="yes"/>
      <point x="214" y="2"/>
      <point x="220" y="-5"/>
      <point x="271" y="-5" type="curve" smooth="yes"/>
      <point x="287" y="-5"/>
      <point x="298" y="-4"/>
      <point x="298" y="-2" type="curve" smooth="yes"/>
      <point x="298" y="1"/>
      <point x="288" y="3"/>
      <point x="265" y="4" type="curve" smooth="yes"/>
      <point x="215" y="7"/>
      <point x="203" y="17"/>
      <point x="201" y="35" type="curve" smooth="yes"/>
      <point x="197" y="178"/>
      <point x="196" y="222"/>
      <point x="196" y="277" type="curve" smooth="yes"/>
      <point x="196" y="284"/>
      <point x="195" y="298"/>
      <point x="200" y="298" type="curve" smooth="yes"/>
      <point x="205" y="298"/>
      <point x="215" y="290"/>
      <point x="223" y="282" type="curve"/>
      <point x="455" y="38" type="line" smooth="yes"/>
      <point x="464" y="30"/>
      <point x="471" y="24"/>
      <point x="470" y="20" type="curve" smooth="yes"/>
      <point x="469" y="12"/>
      <point x="453" y="10"/>
      <point x="421" y="8" type="curve"/>
      <point x="402" y="7"/>
      <point x="394" y="6"/>
      <point x="394" y="3" type="curve" smooth="yes"/>
      <point x="394" y="0"/>
      <point x="405" y="-1"/>
      <point x="420" y="-1" type="curve" smooth="yes"/>
      <point x="462" y="-1"/>
      <point x="474" y="0"/>
      <point x="497" y="0" type="curve" smooth="yes"/>
      <point x="547" y="0"/>
      <point x="570" y="-5"/>
      <point x="624" y="-5" type="curve" smooth="yes"/>
      <point x="640" y="-5"/>
      <point x="651" y="-4"/>
      <point x="651" y="-1" type="curve" smooth="yes"/>
      <point x="651" y="2"/>
      <point x="641" y="5"/>
      <point x="622" y="5" type="curve" smooth="yes"/>
      <point x="605" y="4"/>
      <point x="587" y="10"/>
      <point x="541" y="55" type="curve" smooth="yes"/>
      <point x="261" y="338" type="line" smooth="yes"/>
      <point x="254" y="344"/>
      <point x="251" y="351"/>
      <point x="256" y="356" type="curve"/>
      <point x="323" y="422"/>
      <point x="408" y="505"/>
      <point x="476" y="559" type="curve" smooth="yes"/>
      <point x="519" y="591"/>
      <point x="525" y="594"/>
      <point x="605" y="594" type="curve" smooth="yes"/>
      <point x="628" y="594"/>
      <point x="638" y="598"/>
      <point x="638" y="601" type="curve" smooth="yes"/>
      <point x="638" y="604"/>
      <point x="629" y="605"/>
      <point x="616" y="605" type="curve" smooth="yes"/>
      <point x="603" y="605"/>
      <point x="530" y="601"/>
      <point x="474" y="601" type="curve" smooth="yes"/>
      <point x="421" y="601" type="line" smooth="yes"/>
      <point x="405" y="601"/>
      <point x="393" y="600"/>
      <point x="393" y="598" type="curve" smooth="yes"/>
      <point x="393" y="595"/>
      <point x="400" y="591"/>
      <point x="423" y="591" type="curve" smooth="yes"/>
      <point x="461" y="591"/>
      <point x="476" y="588"/>
      <point x="476" y="578" type="curve" smooth="yes"/>
      <point x="476" y="570"/>
      <point x="464" y="559"/>
      <point x="442" y="540" type="curve" smooth="yes"/>
      <point x="230" y="339" type="line"/>
      <point x="221" y="330"/>
      <point x="208" y="322"/>
      <point x="201" y="322" type="curve" smooth="yes"/>
      <point x="196" y="322"/>
      <point x="196" y="336"/>
      <point x="196" y="341" type="curve" smooth="yes"/>
      <point x="196" y="566" type="line" smooth="yes"/>
      <point x="196" y="578"/>
      <point x="197" y="593"/>
      <point x="250" y="594" type="curve" smooth="yes"/>
      <point x="273" y="594"/>
      <point x="283" y="598"/>
      <point x="283" y="600" type="curve" smooth="yes"/>
      <point x="283" y="602"/>
      <point x="272" y="603"/>
      <point x="256" y="603" type="curve" smooth="yes"/>
      <point x="205" y="603"/>
      <point x="200" y="601"/>
      <point x="164" y="601" type="curve" smooth="yes"/>
      <point x="123" y="601"/>
      <point x="109" y="603"/>
      <point x="58" y="603" type="curve" smooth="yes"/>
      <point x="42" y="603"/>
      <point x="31" y="602"/>
      <point x="31" y="599" type="curve" smooth="yes"/>
      <point x="31" y="596"/>
      <point x="41" y="592"/>
      <point x="64" y="592" type="curve" smooth="yes"/>
      <point x="121" y="592"/>
      <point x="131" y="582"/>
      <point x="131" y="558" type="curve" smooth="yes"/>
      <point x="131" y="33" type="line" smooth="yes"/>
      <point x="131" y="12"/>
      <point x="114" y="7"/>
      <point x="64" y="4" type="curve" smooth="yes"/>
      <point x="41" y="3"/>
      <point x="31" y="1"/>
      <point x="31" y="-2" type="curve" smooth="yes"/>
      <point x="31" y="-4"/>
      <point x="42" y="-5"/>
      <point x="59" y="-5" type="curve" smooth="yes"/>
      <point x="110" y="-5"/>
      <point x="131" y="2"/>
    </contour>
  </outline>
</glyph>
<glyph name="L" format="1">
  <advance width="582"/>
  <unicode hex="004C"/>
  <outline>
    <contour>
      <point x="195" y="0" type="curve" smooth="yes"/>
      <point x="293" y="0"/>
      <point x="398" y="-5"/>
      <point x="528" y="-5" type="curve" smooth="yes"/>
      <point x="538" y="-5"/>
      <point x="541" y="3"/>
      <point x="542" y="12" type="curve" smooth="yes"/>
      <point x="546" y="54"/>
      <point x="555" y="87"/>
      <point x="569" y="139" type="curve"/>
      <point x="569" y="140"/>
      <point x="570" y="142"/>
      <point x="570" y="144" type="curve" smooth="yes"/>
      <point x="570" y="152"/>
      <point x="566" y="162"/>
      <point x="559" y="162" type="curve" smooth="yes"/>
      <point x="553" y="162"/>
      <point x="546" y="148"/>
      <point x="538" y="125" type="curve" smooth="yes"/>
      <point x="522" y="81"/>
      <point x="514" y="67"/>
      <point x="497" y="48" type="curve" smooth="yes"/>
      <point x="477" y="24"/>
      <point x="450" y="7"/>
      <point x="416" y="7" type="curve" smooth="yes"/>
      <point x="282" y="7" type="line" smooth="yes"/>
      <point x="216" y="7"/>
      <point x="205" y="27"/>
      <point x="205" y="68" type="curve" smooth="yes"/>
      <point x="205" y="563" type="line" smooth="yes"/>
      <point x="205" y="590"/>
      <point x="237" y="589"/>
      <point x="294" y="592" type="curve" smooth="yes"/>
      <point x="317" y="594"/>
      <point x="327" y="596"/>
      <point x="327" y="599" type="curve" smooth="yes"/>
      <point x="327" y="602"/>
      <point x="316" y="603"/>
      <point x="300" y="603" type="curve" smooth="yes"/>
      <point x="248" y="603"/>
      <point x="226" y="600"/>
      <point x="180" y="600" type="curve" smooth="yes"/>
      <point x="138" y="600"/>
      <point x="125" y="603"/>
      <point x="74" y="603" type="curve" smooth="yes"/>
      <point x="57" y="603"/>
      <point x="46" y="602"/>
      <point x="46" y="599" type="curve" smooth="yes"/>
      <point x="46" y="596"/>
      <point x="56" y="594"/>
      <point x="79" y="593" type="curve" smooth="yes"/>
      <point x="129" y="590"/>
      <point x="140" y="591"/>
      <point x="140" y="558" type="curve" smooth="yes"/>
      <point x="140" y="44" type="line" smooth="yes"/>
      <point x="140" y="17"/>
      <point x="130" y="11"/>
      <point x="59" y="6" type="curve"/>
      <point x="55" y="5"/>
      <point x="37" y="4"/>
      <point x="37" y="-1" type="curve" smooth="yes"/>
      <point x="37" y="-3"/>
      <point x="47" y="-5"/>
      <point x="64" y="-5" type="curve"/>
      <point x="64" y="-5"/>
      <point x="147" y="0"/>
    </contour>
  </outline>
</glyph>
<glyph name="R" format="1">
  <advance width="698"/>
  <unicode hex="0052"/>
  <outline>
    <contour>
      <point x="703" y="-9" type="curve" smooth="yes"/>
      <point x="703" y="-7"/>
      <point x="698" y="-6"/>
      <point x="687" y="-6" type="curve" smooth="yes"/>
      <point x="652" y="-6"/>
      <point x="633" y="4"/>
      <point x="600" y="27" type="curve" smooth="yes"/>
      <point x="481" y="115"/>
      <point x="416" y="209"/>
      <point x="349" y="292" type="curve" smooth="yes"/>
      <point x="345" y="298"/>
      <point x="344" y="303"/>
      <point x="349" y="305" type="curve"/>
      <point x="407" y="331"/>
      <point x="471" y="372"/>
      <point x="471" y="455" type="curve" smooth="yes"/>
      <point x="471" y="556"/>
      <point x="398" y="607"/>
      <point x="262" y="607" type="curve" smooth="yes"/>
      <point x="209" y="607"/>
      <point x="191" y="602"/>
      <point x="156" y="602" type="curve" smooth="yes"/>
      <point x="118" y="602"/>
      <point x="115" y="603"/>
      <point x="65" y="603" type="curve" smooth="yes"/>
      <point x="48" y="603"/>
      <point x="36" y="602"/>
      <point x="36" y="599" type="curve" smooth="yes"/>
      <point x="36" y="595"/>
      <point x="46" y="592"/>
      <point x="69" y="591" type="curve" smooth="yes"/>
      <point x="126" y="588"/>
      <point x="130" y="583"/>
      <point x="130" y="520" type="curve" smooth="yes"/>
      <point x="130" y="60" type="line" smooth="yes"/>
      <point x="130" y="18"/>
      <point x="119" y="11"/>
      <point x="57" y="7" type="curve" smooth="yes"/>
      <point x="34" y="5"/>
      <point x="24" y="3"/>
      <point x="24" y="-1" type="curve" smooth="yes"/>
      <point x="24" y="-4"/>
      <point x="36" y="-5"/>
      <point x="53" y="-5" type="curve" smooth="yes"/>
      <point x="104" y="-5"/>
      <point x="127" y="2"/>
      <point x="176" y="2" type="curve" smooth="yes"/>
      <point x="211" y="2"/>
      <point x="217" y="-5"/>
      <point x="268" y="-5" type="curve" smooth="yes"/>
      <point x="284" y="-5"/>
      <point x="295" y="-4"/>
      <point x="295" y="-1" type="curve" smooth="yes"/>
      <point x="295" y="3"/>
      <point x="285" y="5"/>
      <point x="262" y="7" type="curve" smooth="yes"/>
      <point x="208" y="10"/>
      <point x="195" y="18"/>
      <point x="195" y="58" type="curve" smooth="yes"/>
      <point x="195" y="261" type="line" smooth="yes"/>
      <point x="195" y="273"/>
      <point x="199" y="282"/>
      <point x="210" y="281" type="curve" smooth="yes"/>
      <point x="228" y="279"/>
      <point x="260" y="274"/>
      <point x="289" y="260" type="curve" smooth="yes"/>
      <point x="309" y="250"/>
      <point x="322" y="239"/>
      <point x="334" y="222" type="curve" smooth="yes"/>
      <point x="401" y="122"/>
      <point x="434" y="85"/>
      <point x="482" y="31" type="curve" smooth="yes"/>
      <point x="519" y="-10"/>
      <point x="565" y="-21"/>
      <point x="622" y="-21" type="curve" smooth="yes"/>
      <point x="647" y="-21"/>
      <point x="703" y="-19"/>
    </contour>
    <contour>
      <point x="195" y="328" type="curve" smooth="yes"/>
      <point x="195" y="408"/>
      <point x="196" y="464"/>
      <point x="197" y="498" type="curve" smooth="yes"/>
      <point x="200" y="567"/>
      <point x="208" y="591"/>
      <point x="251" y="591" type="curve" smooth="yes"/>
      <point x="377" y="591"/>
      <point x="398" y="522"/>
      <point x="398" y="440" type="curve" smooth="yes"/>
      <point x="398" y="346"/>
      <point x="371" y="290"/>
      <point x="248" y="290" type="curve" smooth="yes"/>
      <point x="215" y="290"/>
      <point x="195" y="292"/>
    </contour>
  </outline>
</glyph>
<glyph name="X" format="1">
  <advance width="689"/>
  <unicode hex="0058"/>
  <outline>
    <contour>
      <point x="150" y="0" type="curve" smooth="yes"/>
      <point x="186" y="0"/>
      <point x="221" y="0"/>
      <point x="239" y="0" type="curve" smooth="yes"/>
      <point x="256" y="0"/>
      <point x="268" y="1"/>
      <point x="268" y="4" type="curve" smooth="yes"/>
      <point x="268" y="7"/>
      <point x="258" y="9"/>
      <point x="235" y="12" type="curve"/>
      <point x="188" y="17"/>
      <point x="165" y="35"/>
      <point x="165" y="54" type="curve" smooth="yes"/>
      <point x="165" y="60"/>
      <point x="169" y="68"/>
      <point x="174" y="74" type="curve" smooth="yes"/>
      <point x="322" y="260" type="line" smooth="yes"/>
      <point x="329" y="269"/>
      <point x="334" y="270"/>
      <point x="345" y="256" type="curve" smooth="yes"/>
      <point x="466" y="88" type="line"/>
      <point x="476" y="75"/>
      <point x="480" y="65"/>
      <point x="481" y="55" type="curve" smooth="yes"/>
      <point x="481" y="33"/>
      <point x="472" y="20"/>
      <point x="427" y="14" type="curve" smooth="yes"/>
      <point x="413" y="12"/>
      <point x="394" y="10"/>
      <point x="394" y="6" type="curve" smooth="yes"/>
      <point x="394" y="3"/>
      <point x="405" y="2"/>
      <point x="421" y="2" type="curve" smooth="yes"/>
      <point x="443" y="2"/>
      <point x="481" y="3"/>
      <point x="519" y="3" type="curve" smooth="yes"/>
      <point x="563" y="3"/>
      <point x="627" y="-3"/>
      <point x="654" y="-3" type="curve" smooth="yes"/>
      <point x="669" y="-3"/>
      <point x="681" y="-2"/>
      <point x="681" y="1" type="curve" smooth="yes"/>
      <point x="681" y="5"/>
      <point x="671" y="7"/>
      <point x="648" y="9" type="curve" smooth="yes"/>
      <point x="625" y="10"/>
      <point x="584" y="47"/>
      <point x="556" y="84" type="curve" smooth="yes"/>
      <point x="383" y="315" type="line"/>
      <point x="376" y="328"/>
      <point x="381" y="333"/>
      <point x="395" y="352" type="curve" smooth="yes"/>
      <point x="516" y="515" type="line" smooth="yes"/>
      <point x="562" y="577"/>
      <point x="596" y="587"/>
      <point x="645" y="590" type="curve" smooth="yes"/>
      <point x="668" y="592"/>
      <point x="678" y="594"/>
      <point x="678" y="598" type="curve" smooth="yes"/>
      <point x="678" y="601"/>
      <point x="666" y="602"/>
      <point x="649" y="602" type="curve" smooth="yes"/>
      <point x="622" y="602"/>
      <point x="574" y="600"/>
      <point x="535" y="600" type="curve" smooth="yes"/>
      <point x="505" y="600"/>
      <point x="478" y="600"/>
      <point x="454" y="600" type="curve" smooth="yes"/>
      <point x="437" y="600"/>
      <point x="425" y="599"/>
      <point x="425" y="596" type="curve" smooth="yes"/>
      <point x="425" y="592"/>
      <point x="444" y="588"/>
      <point x="458" y="588" type="curve" smooth="yes"/>
      <point x="508" y="589"/>
      <point x="528" y="572"/>
      <point x="528" y="557" type="curve" smooth="yes"/>
      <point x="528" y="545"/>
      <point x="514" y="529"/>
      <point x="499" y="509" type="curve" smooth="yes"/>
      <point x="386" y="353" type="line" smooth="yes"/>
      <point x="375" y="338"/>
      <point x="369" y="335"/>
      <point x="354" y="354" type="curve" smooth="yes"/>
      <point x="236" y="513" type="line" smooth="yes"/>
      <point x="214" y="542"/>
      <point x="204" y="558"/>
      <point x="204" y="570" type="curve" smooth="yes"/>
      <point x="204" y="584"/>
      <point x="231" y="591"/>
      <point x="265" y="593" type="curve" smooth="yes"/>
      <point x="287" y="595"/>
      <point x="296" y="597"/>
      <point x="296" y="600" type="curve" smooth="yes"/>
      <point x="296" y="603"/>
      <point x="284" y="604"/>
      <point x="269" y="604" type="curve" smooth="yes"/>
      <point x="252" y="604"/>
      <point x="217" y="603"/>
      <point x="180" y="603" type="curve" smooth="yes"/>
      <point x="133" y="603"/>
      <point x="76" y="605"/>
      <point x="45" y="605" type="curve" smooth="yes"/>
      <point x="29" y="605"/>
      <point x="18" y="604"/>
      <point x="18" y="601" type="curve" smooth="yes"/>
      <point x="18" y="598"/>
      <point x="30" y="595"/>
      <point x="51" y="593" type="curve" smooth="yes"/>
      <point x="79" y="590"/>
      <point x="103" y="569"/>
      <point x="155" y="505" type="curve" smooth="yes"/>
      <point x="306" y="308" type="line" smooth="yes"/>
      <point x="327" y="283"/>
      <point x="316" y="267"/>
      <point x="300" y="248" type="curve"/>
      <point x="178" y="97" type="line" smooth="yes"/>
      <point x="137" y="48"/>
      <point x="63" y="16"/>
      <point x="37" y="13" type="curve" smooth="yes"/>
      <point x="6" y="8"/>
      <point x="-5" y="4"/>
      <point x="-5" y="0" type="curve" smooth="yes"/>
      <point x="-5" y="-3"/>
      <point x="7" y="-4"/>
      <point x="24" y="-4" type="curve" smooth="yes"/>
      <point x="57" y="-4"/>
      <point x="105" y="0"/>
    </contour>
  </outline>
</glyph>
<glyph name="a" format="1">
  <advance width="371"/>
  <unicode hex="0061"/>
  <outline>
    <contour>
      <point x="227" y="58" type="curve"/>
      <point x="230" y="58" type="line"/>
      <point x="237" y="11"/>
      <point x="269" y="-14"/>
      <point x="297" y="-14" type="curve" smooth="yes"/>
      <point x="317" y="-14"/>
      <point x="341" y="5"/>
      <point x="365" y="35" type="curve" smooth="yes"/>
      <point x="368" y="38"/>
      <point x="370" y="44"/>
      <point x="370" y="47" type="curve" smooth="yes"/>
      <point x="370" y="49"/>
      <point x="371" y="52"/>
      <point x="367" y="52" type="curve" smooth="yes"/>
      <point x="363" y="52"/>
      <point x="361" y="47"/>
      <point x="356" y="41" type="curve" smooth="yes"/>
      <point x="347" y="30"/>
      <point x="331" y="20"/>
      <point x="318" y="20" type="curve" smooth="yes"/>
      <point x="290" y="20"/>
      <point x="277" y="39"/>
      <point x="278" y="73" type="curve" smooth="yes"/>
      <point x="282" y="252" type="line" smooth="yes"/>
      <point x="284" y="296"/>
      <point x="252" y="330"/>
      <point x="209" y="330" type="curve" smooth="yes"/>
      <point x="173" y="330"/>
      <point x="114" y="300"/>
      <point x="74" y="260" type="curve" smooth="yes"/>
      <point x="53" y="237"/>
      <point x="39" y="211"/>
      <point x="39" y="190" type="curve" smooth="yes"/>
      <point x="39" y="185"/>
      <point x="43" y="181"/>
      <point x="49" y="181" type="curve" smooth="yes"/>
      <point x="65" y="181"/>
      <point x="105" y="206"/>
      <point x="105" y="216" type="curve" smooth="yes"/>
      <point x="105" y="220"/>
      <point x="103" y="228"/>
      <point x="103" y="233" type="curve" smooth="yes"/>
      <point x="103" y="256"/>
      <point x="107" y="272"/>
      <point x="116" y="282" type="curve" smooth="yes"/>
      <point x="126" y="295"/>
      <point x="142" y="302"/>
      <point x="167" y="302" type="curve" smooth="yes"/>
      <point x="204" y="302"/>
      <point x="226" y="275"/>
      <point x="224" y="239" type="curve" smooth="yes"/>
      <point x="222" y="191" type="line" smooth="yes"/>
      <point x="221" y="176"/>
      <point x="221" y="174"/>
      <point x="213" y="170" type="curve" smooth="yes"/>
      <point x="103" y="129" type="line" smooth="yes"/>
      <point x="57" y="112"/>
      <point x="37" y="95"/>
      <point x="37" y="59" type="curve" smooth="yes"/>
      <point x="37" y="27"/>
      <point x="78" y="-14"/>
      <point x="111" y="-14" type="curve" smooth="yes"/>
      <point x="151" y="-14"/>
      <point x="200" y="13"/>
    </contour>
    <contour>
      <point x="100" y="76" type="curve" smooth="yes"/>
      <point x="100" y="103"/>
      <point x="120" y="129"/>
      <point x="194" y="157" type="curve" smooth="yes"/>
      <point x="205" y="161"/>
      <point x="211" y="161"/>
      <point x="214" y="161" type="curve" smooth="yes"/>
      <point x="222" y="161"/>
      <point x="224" y="154"/>
      <point x="223" y="139" type="curve" smooth="yes"/>
      <point x="221" y="80" type="line" smooth="yes"/>
      <point x="220" y="54"/>
      <point x="216" y="44"/>
      <point x="209" y="37" type="curve" smooth="yes"/>
      <point x="194" y="22"/>
      <point x="175" y="13"/>
      <point x="149" y="13" type="curve" smooth="yes"/>
      <point x="125" y="13"/>
      <point x="100" y="40"/>
    </contour>
  </outline>
</glyph>
<glyph name="c" format="1">
  <advance width="394"/>
  <unicode hex="0063"/>
  <outline>
    <contour>
      <point x="334" y="47" type="curve" smooth="yes"/>
      <point x="347" y="64"/>
      <point x="356" y="86"/>
      <point x="356" y="98" type="curve" smooth="yes"/>
      <point x="357" y="100"/>
      <point x="357" y="101"/>
      <point x="354" y="101" type="curve" smooth="yes"/>
      <point x="352" y="101"/>
      <point x="351" y="100"/>
      <point x="349" y="97" type="curve" smooth="yes"/>
      <point x="319" y="63"/>
      <point x="284" y="41"/>
      <point x="241" y="41" type="curve" smooth="yes"/>
      <point x="152" y="41"/>
      <point x="91" y="81"/>
      <point x="91" y="168" type="curve" smooth="yes"/>
      <point x="91" y="253"/>
      <point x="136" y="320"/>
      <point x="201" y="320" type="curve" smooth="yes"/>
      <point x="234" y="320"/>
      <point x="267" y="282"/>
      <point x="294" y="250" type="curve" smooth="yes"/>
      <point x="302" y="241"/>
      <point x="310" y="234"/>
      <point x="317" y="234" type="curve" smooth="yes"/>
      <point x="335" y="234"/>
      <point x="359" y="263"/>
      <point x="359" y="278" type="curve" smooth="yes"/>
      <point x="359" y="284"/>
      <point x="355" y="289"/>
      <point x="348" y="294" type="curve" smooth="yes"/>
      <point x="315" y="318"/>
      <point x="279" y="330"/>
      <point x="238" y="330" type="curve" smooth="yes"/>
      <point x="119" y="330"/>
      <point x="35" y="248"/>
      <point x="35" y="142" type="curve" smooth="yes"/>
      <point x="35" y="53"/>
      <point x="109" y="-14"/>
      <point x="206" y="-14" type="curve" smooth="yes"/>
      <point x="268" y="-14"/>
      <point x="308" y="12"/>
    </contour>
  </outline>
</glyph>
<glyph name="e" format="1">
  <advance width="378"/>
  <unicode hex="0065"/>
  <outline>
    <contour>
      <point x="346" y="70" type="curve" smooth="yes"/>
      <point x="349" y="79"/>
      <point x="353" y="81"/>
      <point x="353" y="83" type="curve" smooth="yes"/>
      <point x="353" y="84"/>
      <point x="352" y="85"/>
      <point x="349" y="85" type="curve" smooth="yes"/>
      <point x="347" y="85"/>
      <point x="346" y="86"/>
      <point x="341" y="81" type="curve" smooth="yes"/>
      <point x="316" y="59"/>
      <point x="280" y="46"/>
      <point x="236" y="46" type="curve" smooth="yes"/>
      <point x="151" y="46"/>
      <point x="82" y="105"/>
      <point x="82" y="176" type="curve" smooth="yes"/>
      <point x="82" y="192"/>
      <point x="88" y="199"/>
      <point x="107" y="199" type="curve" smooth="yes"/>
      <point x="318" y="199" type="line" smooth="yes"/>
      <point x="339" y="199"/>
      <point x="348" y="210"/>
      <point x="348" y="230" type="curve" smooth="yes"/>
      <point x="348" y="289"/>
      <point x="293" y="330"/>
      <point x="216" y="330" type="curve" smooth="yes"/>
      <point x="113" y="330"/>
      <point x="30" y="255"/>
      <point x="30" y="160" type="curve" smooth="yes"/>
      <point x="30" y="55"/>
      <point x="100" y="-15"/>
      <point x="206" y="-15" type="curve" smooth="yes"/>
      <point x="261" y="-15"/>
      <point x="316" y="17"/>
    </contour>
    <contour>
      <point x="97" y="220" type="curve" smooth="yes"/>
      <point x="97" y="269"/>
      <point x="153" y="322"/>
      <point x="202" y="322" type="curve" smooth="yes"/>
      <point x="253" y="322"/>
      <point x="294" y="286"/>
      <point x="294" y="240" type="curve" smooth="yes"/>
      <point x="294" y="224"/>
      <point x="292" y="215"/>
      <point x="286" y="215" type="curve" smooth="yes"/>
      <point x="263" y="210"/>
      <point x="241" y="209"/>
      <point x="207" y="209" type="curve" smooth="yes"/>
      <point x="109" y="209" type="line" smooth="yes"/>
      <point x="101" y="209"/>
      <point x="97" y="212"/>
    </contour>
  </outline>
</glyph>
<glyph name="g" format="1">
  <advance width="401"/>
  <unicode hex="0067"/>
  <outline>
    <contour>
      <point x="387" y="-51" type="curve" smooth="yes"/>
      <point x="386" y="-1"/>
      <point x="331" y="26"/>
      <point x="213" y="31" type="curve" smooth="yes"/>
      <point x="132" y="35"/>
      <point x="90" y="48"/>
      <point x="90" y="65" type="curve" smooth="yes"/>
      <point x="90" y="75"/>
      <point x="109" y="92"/>
      <point x="130" y="101" type="curve"/>
      <point x="133" y="113" type="line"/>
      <point x="120" y="102"/>
      <point x="119" y="102"/>
      <point x="64" y="75" type="curve" smooth="yes"/>
      <point x="46" y="65"/>
      <point x="36" y="56"/>
      <point x="36" y="46" type="curve" smooth="yes"/>
      <point x="36" y="-7"/>
      <point x="73" y="-20"/>
      <point x="192" y="-31" type="curve" smooth="yes"/>
      <point x="304" y="-42"/>
      <point x="336" y="-54"/>
      <point x="337" y="-85" type="curve" smooth="yes"/>
      <point x="338" y="-120"/>
      <point x="318" y="-151"/>
      <point x="288" y="-170" type="curve" smooth="yes"/>
      <point x="264" y="-186"/>
      <point x="231" y="-193"/>
      <point x="190" y="-193" type="curve" smooth="yes"/>
      <point x="125" y="-193"/>
      <point x="72" y="-161"/>
      <point x="72" y="-121" type="curve" smooth="yes"/>
      <point x="72" y="-78"/>
      <point x="91" y="-50"/>
      <point x="138" y="-19" type="curve"/>
      <point x="137" y="-10" type="line"/>
      <point x="103" y="-31"/>
      <point x="66" y="-52"/>
      <point x="46" y="-63" type="curve" smooth="yes"/>
      <point x="20" y="-77"/>
      <point x="11" y="-95"/>
      <point x="11" y="-121" type="curve" smooth="yes"/>
      <point x="11" y="-178"/>
      <point x="75" y="-213"/>
      <point x="176" y="-213" type="curve" smooth="yes"/>
      <point x="280" y="-213"/>
      <point x="388" y="-133"/>
    </contour>
    <contour>
      <point x="95" y="211" type="curve" smooth="yes"/>
      <point x="95" y="281"/>
      <point x="137" y="324"/>
      <point x="184" y="324" type="curve" smooth="yes"/>
      <point x="238" y="324"/>
      <point x="279" y="298"/>
      <point x="279" y="217" type="curve" smooth="yes"/>
      <point x="279" y="135"/>
      <point x="247" y="89"/>
      <point x="191" y="89" type="curve" smooth="yes"/>
      <point x="135" y="89"/>
      <point x="95" y="128"/>
    </contour>
    <contour>
      <point x="332" y="229" type="curve" smooth="yes"/>
      <point x="332" y="247"/>
      <point x="335" y="267"/>
      <point x="338" y="278" type="curve" smooth="yes"/>
      <point x="340" y="286"/>
      <point x="349" y="291"/>
      <point x="365" y="291" type="curve" smooth="yes"/>
      <point x="390" y="291" type="line"/>
      <point x="392" y="291"/>
      <point x="395" y="291"/>
      <point x="398" y="290" type="curve" smooth="yes"/>
      <point x="404" y="288"/>
      <point x="407" y="298"/>
      <point x="407" y="301" type="curve" smooth="yes"/>
      <point x="407" y="304"/>
      <point x="401" y="306"/>
      <point x="395" y="306" type="curve" smooth="yes"/>
      <point x="385" y="306"/>
      <point x="359" y="306"/>
      <point x="344" y="306" type="curve" smooth="yes"/>
      <point x="326" y="306"/>
      <point x="312" y="307"/>
      <point x="282" y="314" type="curve" smooth="yes"/>
      <point x="257" y="320"/>
      <point x="233" y="330"/>
      <point x="197" y="330" type="curve" smooth="yes"/>
      <point x="113" y="330"/>
      <point x="36" y="279"/>
      <point x="36" y="204" type="curve" smooth="yes"/>
      <point x="36" y="137"/>
      <point x="109" y="83"/>
      <point x="186" y="83" type="curve" smooth="yes"/>
      <point x="267" y="83"/>
      <point x="332" y="141"/>
    </contour>
  </outline>
</glyph>
<glyph name="u" format="1">
  <advance width="501"/>
  <unicode hex="0075"/>
  <outline>
    <contour>
      <point x="371" y="-13" type="curve"/>
      <point x="397" y="-1"/>
      <point x="430" y="15"/>
      <point x="478" y="23" type="curve" smooth="yes"/>
      <point x="485" y="24"/>
      <point x="491" y="24"/>
      <point x="491" y="26" type="curve" smooth="yes"/>
      <point x="491" y="28"/>
      <point x="483" y="28"/>
      <point x="476" y="28" type="curve" smooth="yes"/>
      <point x="466" y="28"/>
      <point x="440" y="27"/>
      <point x="430" y="27" type="curve" smooth="yes"/>
      <point x="416" y="27"/>
      <point x="412" y="40"/>
      <point x="412" y="68" type="curve" smooth="yes"/>
      <point x="412" y="242" type="line" smooth="yes"/>
      <point x="412" y="258"/>
      <point x="417" y="304"/>
      <point x="419" y="311" type="curve" smooth="yes"/>
      <point x="420" y="315"/>
      <point x="421" y="318"/>
      <point x="421" y="320" type="curve" smooth="yes"/>
      <point x="421" y="327"/>
      <point x="415" y="331"/>
      <point x="408" y="331" type="curve" smooth="yes"/>
      <point x="405" y="331"/>
      <point x="402" y="330"/>
      <point x="399" y="329" type="curve"/>
      <point x="366" y="319"/>
      <point x="342" y="313"/>
      <point x="286" y="314" type="curve" smooth="yes"/>
      <point x="276" y="314"/>
      <point x="267" y="313"/>
      <point x="267" y="311" type="curve" smooth="yes"/>
      <point x="267" y="308"/>
      <point x="276" y="308"/>
      <point x="288" y="308" type="curve" smooth="yes"/>
      <point x="347" y="308"/>
      <point x="355" y="304"/>
      <point x="355" y="272" type="curve" smooth="yes"/>
      <point x="355" y="118" type="line" smooth="yes"/>
      <point x="355" y="90"/>
      <point x="339" y="68"/>
      <point x="315" y="51" type="curve" smooth="yes"/>
      <point x="298" y="39"/>
      <point x="268" y="32"/>
      <point x="226" y="32" type="curve" smooth="yes"/>
      <point x="184" y="32"/>
      <point x="142" y="71"/>
      <point x="142" y="128" type="curve" smooth="yes"/>
      <point x="142" y="239" type="line" smooth="yes"/>
      <point x="142" y="269"/>
      <point x="145" y="285"/>
      <point x="148" y="316" type="curve" smooth="yes"/>
      <point x="149" y="327"/>
      <point x="144" y="330"/>
      <point x="138" y="330" type="curve" smooth="yes"/>
      <point x="135" y="330"/>
      <point x="134" y="330"/>
      <point x="131" y="329" type="curve" smooth="yes"/>
      <point x="98" y="320"/>
      <point x="83" y="319"/>
      <point x="43" y="315" type="curve" smooth="yes"/>
      <point x="35" y="315"/>
      <point x="29" y="314"/>
      <point x="29" y="312" type="curve" smooth="yes"/>
      <point x="29" y="310"/>
      <point x="35" y="309"/>
      <point x="42" y="308" type="curve"/>
      <point x="81" y="305"/>
      <point x="85" y="294"/>
      <point x="85" y="258" type="curve" smooth="yes"/>
      <point x="85" y="105" type="line" smooth="yes"/>
      <point x="85" y="27"/>
      <point x="132" y="-14"/>
      <point x="194" y="-14" type="curve" smooth="yes"/>
      <point x="253" y="-14"/>
      <point x="301" y="12"/>
      <point x="351" y="77" type="curve"/>
      <point x="351" y="55"/>
      <point x="351" y="53"/>
      <point x="351" y="51" type="curve" smooth="yes"/>
      <point x="351" y="34"/>
      <point x="346" y="2"/>
      <point x="346" y="-11" type="curve" smooth="yes"/>
      <point x="346" y="-16"/>
      <point x="348" y="-19"/>
      <point x="352" y="-19" type="curve" smooth="yes"/>
      <point x="358" y="-19"/>
      <point x="367" y="-15"/>
    </contour>
  </outline>
</glyph>
<glyph name="w" format="1">
  <advance width="660"/>
  <unicode hex="0077"/>
  <outline>
    <contour>
      <point x="227" y="-16" type="curve"/>
      <point x="314" y="226" type="line" smooth="yes"/>
      <point x="317" y="233"/>
      <point x="321" y="235"/>
      <point x="323" y="235" type="curve" smooth="yes"/>
      <point x="325" y="236"/>
      <point x="328" y="233"/>
      <point x="331" y="228" type="curve" smooth="yes"/>
      <point x="438" y="-16" type="line"/>
      <point x="439" y="-20"/>
      <point x="444" y="-23"/>
      <point x="447" y="-23" type="curve" smooth="yes"/>
      <point x="451" y="-23"/>
      <point x="455" y="-20"/>
      <point x="457" y="-16" type="curve"/>
      <point x="589" y="251" type="line" smooth="yes"/>
      <point x="616" y="308"/>
      <point x="627" y="314"/>
      <point x="653" y="314" type="curve"/>
      <point x="665" y="314"/>
      <point x="673" y="316"/>
      <point x="673" y="318" type="curve" smooth="yes"/>
      <point x="673" y="321"/>
      <point x="661" y="321"/>
      <point x="653" y="321" type="curve" smooth="yes"/>
      <point x="631" y="321"/>
      <point x="624" y="320"/>
      <point x="587" y="320" type="curve" smooth="yes"/>
      <point x="551" y="320"/>
      <point x="542" y="321"/>
      <point x="513" y="321" type="curve" smooth="yes"/>
      <point x="506" y="321"/>
      <point x="493" y="321"/>
      <point x="493" y="318" type="curve" smooth="yes"/>
      <point x="493" y="316"/>
      <point x="507" y="314"/>
      <point x="520" y="314" type="curve" smooth="yes"/>
      <point x="566" y="311"/>
      <point x="577" y="297"/>
      <point x="577" y="275" type="curve" smooth="yes"/>
      <point x="577" y="265"/>
      <point x="571" y="261"/>
      <point x="562" y="245" type="curve" smooth="yes"/>
      <point x="486" y="40" type="line" smooth="yes"/>
      <point x="482" y="34"/>
      <point x="478" y="31"/>
      <point x="475" y="31" type="curve" smooth="yes"/>
      <point x="473" y="31"/>
      <point x="470" y="35"/>
      <point x="467" y="42" type="curve" smooth="yes"/>
      <point x="393" y="234" type="line" smooth="yes"/>
      <point x="383" y="251"/>
      <point x="376" y="267"/>
      <point x="376" y="280" type="curve" smooth="yes"/>
      <point x="377" y="289"/>
      <point x="378" y="304"/>
      <point x="404" y="311" type="curve" smooth="yes"/>
      <point x="414" y="314"/>
      <point x="427" y="314"/>
      <point x="427" y="318" type="curve" smooth="yes"/>
      <point x="427" y="321"/>
      <point x="415" y="321"/>
      <point x="408" y="321" type="curve" smooth="yes"/>
      <point x="388" y="321"/>
      <point x="363" y="319"/>
      <point x="329" y="319" type="curve" smooth="yes"/>
      <point x="294" y="319"/>
      <point x="275" y="321"/>
      <point x="258" y="321" type="curve" smooth="yes"/>
      <point x="251" y="321"/>
      <point x="240" y="321"/>
      <point x="240" y="318" type="curve" smooth="yes"/>
      <point x="240" y="314"/>
      <point x="253" y="312"/>
      <point x="263" y="311" type="curve" smooth="yes"/>
      <point x="306" y="307"/>
      <point x="312" y="288"/>
      <point x="312" y="261" type="curve" smooth="yes"/>
      <point x="312" y="246"/>
      <point x="305" y="229"/>
      <point x="295" y="206" type="curve" smooth="yes"/>
      <point x="243" y="52" type="line" smooth="yes"/>
      <point x="240" y="48"/>
      <point x="240" y="48"/>
      <point x="238" y="48" type="curve" smooth="yes"/>
      <point x="236" y="48"/>
      <point x="234" y="50"/>
      <point x="233" y="52" type="curve" smooth="yes"/>
      <point x="149" y="255" type="line" smooth="yes"/>
      <point x="144" y="264"/>
      <point x="140" y="275"/>
      <point x="140" y="284" type="curve" smooth="yes"/>
      <point x="140" y="298"/>
      <point x="143" y="310"/>
      <point x="166" y="313" type="curve"/>
      <point x="177" y="315"/>
      <point x="189" y="315"/>
      <point x="189" y="318" type="curve" smooth="yes"/>
      <point x="189" y="321"/>
      <point x="175" y="321"/>
      <point x="170" y="321" type="curve" smooth="yes"/>
      <point x="144" y="321"/>
      <point x="119" y="319"/>
      <point x="92" y="319" type="curve" smooth="yes"/>
      <point x="68" y="319"/>
      <point x="47" y="321"/>
      <point x="24" y="321" type="curve" smooth="yes"/>
      <point x="17" y="321"/>
      <point x="5" y="321"/>
      <point x="5" y="318" type="curve" smooth="yes"/>
      <point x="5" y="315"/>
      <point x="17" y="315"/>
      <point x="28" y="313" type="curve"/>
      <point x="47" y="310"/>
      <point x="60" y="288"/>
      <point x="73" y="265" type="curve" smooth="yes"/>
      <point x="210" y="-16" type="line"/>
      <point x="211" y="-20"/>
      <point x="215" y="-23"/>
      <point x="218" y="-23" type="curve" smooth="yes"/>
      <point x="221" y="-23"/>
      <point x="226" y="-20"/>
    </contour>
  </outline>
</glyph>
<glyph name="x" format="1">
  <advance width="430"/>
  <unicode hex="0078"/>
  <outline>
    <contour>
      <point x="97" y="1" type="curve" smooth="yes"/>
      <point x="113" y="1"/>
      <point x="124" y="-1"/>
      <point x="135" y="-3" type="curve" smooth="yes"/>
      <point x="140" y="-4"/>
      <point x="158" y="-3"/>
      <point x="158" y="-1" type="curve" smooth="yes"/>
      <point x="158" y="3"/>
      <point x="145" y="5"/>
      <point x="135" y="5" type="curve"/>
      <point x="110" y="7"/>
      <point x="96" y="5"/>
      <point x="95" y="11" type="curve" smooth="yes"/>
      <point x="95" y="14"/>
      <point x="100" y="21"/>
      <point x="110" y="34" type="curve" smooth="yes"/>
      <point x="193" y="148" type="line" smooth="yes"/>
      <point x="196" y="151"/>
      <point x="198" y="151"/>
      <point x="201" y="148" type="curve" smooth="yes"/>
      <point x="278" y="40" type="line" smooth="yes"/>
      <point x="286" y="31"/>
      <point x="291" y="24"/>
      <point x="291" y="17" type="curve" smooth="yes"/>
      <point x="291" y="11"/>
      <point x="284" y="2"/>
      <point x="257" y="3" type="curve" smooth="yes"/>
      <point x="247" y="1"/>
      <point x="240" y="3"/>
      <point x="240" y="-1" type="curve" smooth="yes"/>
      <point x="240" y="-1"/>
      <point x="245" y="-3"/>
      <point x="261" y="-3" type="curve" smooth="yes"/>
      <point x="282" y="-3"/>
      <point x="306" y="-3"/>
      <point x="328" y="-3" type="curve" smooth="yes"/>
      <point x="374" y="-3"/>
      <point x="367" y="-4"/>
      <point x="405" y="-4" type="curve" smooth="yes"/>
      <point x="413" y="-4"/>
      <point x="425" y="-4"/>
      <point x="425" y="-2" type="curve" smooth="yes"/>
      <point x="425" y="1"/>
      <point x="416" y="-1"/>
      <point x="406" y="1" type="curve" smooth="yes"/>
      <point x="395" y="3"/>
      <point x="390" y="10"/>
      <point x="374" y="24" type="curve" smooth="yes"/>
      <point x="250" y="180" type="line" smooth="yes"/>
      <point x="247" y="185"/>
      <point x="248" y="188"/>
      <point x="250" y="190" type="curve" smooth="yes"/>
      <point x="317" y="274" type="line" smooth="yes"/>
      <point x="342" y="303"/>
      <point x="351" y="312"/>
      <point x="390" y="312" type="curve"/>
      <point x="401" y="312"/>
      <point x="413" y="314"/>
      <point x="413" y="318" type="curve" smooth="yes"/>
      <point x="413" y="321"/>
      <point x="401" y="321"/>
      <point x="393" y="321" type="curve" smooth="yes"/>
      <point x="376" y="321"/>
      <point x="367" y="319"/>
      <point x="330" y="319" type="curve" smooth="yes"/>
      <point x="314" y="319"/>
      <point x="296" y="320"/>
      <point x="286" y="320" type="curve" smooth="yes"/>
      <point x="281" y="320"/>
      <point x="263" y="321"/>
      <point x="263" y="317" type="curve" smooth="yes"/>
      <point x="263" y="315"/>
      <point x="272" y="317"/>
      <point x="281" y="317" type="curve"/>
      <point x="306" y="316"/>
      <point x="320" y="314"/>
      <point x="321" y="305" type="curve" smooth="yes"/>
      <point x="321" y="301"/>
      <point x="318" y="296"/>
      <point x="312" y="287" type="curve"/>
      <point x="240" y="193" type="line" smooth="yes"/>
      <point x="237" y="190"/>
      <point x="236" y="189"/>
      <point x="231" y="193" type="curve" smooth="yes"/>
      <point x="169" y="273" type="line"/>
      <point x="155" y="287"/>
      <point x="147" y="296"/>
      <point x="147" y="302" type="curve" smooth="yes"/>
      <point x="147" y="307"/>
      <point x="148" y="313"/>
      <point x="171" y="315" type="curve" smooth="yes"/>
      <point x="180" y="316"/>
      <point x="189" y="316"/>
      <point x="189" y="318" type="curve" smooth="yes"/>
      <point x="189" y="320"/>
      <point x="171" y="320"/>
      <point x="166" y="320" type="curve" smooth="yes"/>
      <point x="145" y="320"/>
      <point x="147" y="320"/>
      <point x="126" y="320" type="curve" smooth="yes"/>
      <point x="81" y="320"/>
      <point x="79" y="321"/>
      <point x="44" y="321" type="curve" smooth="yes"/>
      <point x="39" y="321"/>
      <point x="23" y="321"/>
      <point x="23" y="318" type="curve" smooth="yes"/>
      <point x="23" y="315"/>
      <point x="35" y="315"/>
      <point x="43" y="313" type="curve" smooth="yes"/>
      <point x="60" y="310"/>
      <point x="70" y="300"/>
      <point x="94" y="275" type="curve" smooth="yes"/>
      <point x="186" y="159" type="line" smooth="yes"/>
      <point x="191" y="154"/>
      <point x="190" y="151"/>
      <point x="187" y="146" type="curve"/>
      <point x="116" y="51" type="line" smooth="yes"/>
      <point x="84" y="13"/>
      <point x="77" y="9"/>
      <point x="37" y="3" type="curve" smooth="yes"/>
      <point x="24" y="2"/>
      <point x="10" y="1"/>
      <point x="10" y="-2" type="curve" smooth="yes"/>
      <point x="10" y="-4"/>
      <point x="22" y="-4"/>
      <point x="30" y="-4" type="curve" smooth="yes"/>
      <point x="48" y="-4"/>
      <point x="60" y="1"/>
    </contour>
  </outline>
</glyph>
<glyph name="y" format="1">
  <advance width="425"/>
  <unicode hex="0079"/>
  <outline>
    <contour>
      <point x="114" y="-170" type="curve" smooth="yes"/>
      <point x="158" y="-93"/>
      <point x="174" y="-91"/>
      <point x="221" y="-5" type="curve" smooth="yes"/>
      <point x="345" y="263" type="line" smooth="yes"/>
      <point x="367" y="307"/>
      <point x="389" y="313"/>
      <point x="408" y="315" type="curve"/>
      <point x="428" y="319"/>
      <point x="430" y="320"/>
      <point x="430" y="320" type="curve" smooth="yes"/>
      <point x="430" y="322"/>
      <point x="424" y="322"/>
      <point x="410" y="322" type="curve" smooth="yes"/>
      <point x="395" y="322"/>
      <point x="384" y="321"/>
      <point x="351" y="321" type="curve" smooth="yes"/>
      <point x="319" y="321"/>
      <point x="308" y="322"/>
      <point x="296" y="322" type="curve" smooth="yes"/>
      <point x="285" y="322"/>
      <point x="276" y="324"/>
      <point x="276" y="322" type="curve" smooth="yes"/>
      <point x="276" y="322"/>
      <point x="269" y="328"/>
      <point x="294" y="326" type="curve" smooth="yes"/>
      <point x="327" y="324"/>
      <point x="340" y="311"/>
      <point x="340" y="296" type="curve" smooth="yes"/>
      <point x="340" y="285"/>
      <point x="339" y="275"/>
      <point x="334" y="262" type="curve"/>
      <point x="230" y="30" type="line" smooth="yes"/>
      <point x="231" y="32" type="line" smooth="yes"/>
      <point x="232" y="32"/>
      <point x="233" y="29"/>
      <point x="232" y="30" type="curve" smooth="yes"/>
      <point x="138" y="263" type="line" smooth="yes"/>
      <point x="134" y="273"/>
      <point x="137" y="274"/>
      <point x="137" y="281" type="curve" smooth="yes"/>
      <point x="137" y="295"/>
      <point x="143" y="319"/>
      <point x="164" y="322" type="curve" smooth="yes"/>
      <point x="175" y="324"/>
      <point x="179" y="320"/>
      <point x="179" y="320" type="curve" smooth="yes"/>
      <point x="179" y="322"/>
      <point x="166" y="322"/>
      <point x="161" y="322" type="curve" smooth="yes"/>
      <point x="125" y="322"/>
      <point x="124" y="321"/>
      <point x="92" y="321" type="curve" smooth="yes"/>
      <point x="59" y="321"/>
      <point x="59" y="322"/>
      <point x="24" y="322" type="curve" smooth="yes"/>
      <point x="17" y="322"/>
      <point x="5" y="322"/>
      <point x="5" y="320" type="curve" smooth="yes"/>
      <point x="5" y="318"/>
      <point x="8" y="316"/>
      <point x="20" y="314" type="curve"/>
      <point x="39" y="310"/>
      <point x="60" y="301"/>
      <point x="76" y="269" type="curve" smooth="yes"/>
      <point x="194" y="8" type="line" smooth="yes"/>
      <point x="198" y="-1"/>
      <point x="200" y="-10"/>
      <point x="200" y="-20" type="curve" smooth="yes"/>
      <point x="201" y="-29"/>
      <point x="199" y="-37"/>
      <point x="195" y="-44" type="curve"/>
      <point x="176" y="-65"/>
      <point x="158" y="-71"/>
      <point x="122" y="-122" type="curve" smooth="yes"/>
      <point x="116" y="-130"/>
      <point x="109" y="-133"/>
      <point x="101" y="-133" type="curve" smooth="yes"/>
      <point x="89" y="-133"/>
      <point x="74" y="-127"/>
      <point x="58" y="-127" type="curve" smooth="yes"/>
      <point x="34" y="-127"/>
      <point x="22" y="-148"/>
      <point x="22" y="-172" type="curve" smooth="yes"/>
      <point x="22" y="-202"/>
      <point x="36" y="-213"/>
      <point x="62" y="-213" type="curve" smooth="yes"/>
      <point x="85" y="-213"/>
      <point x="98" y="-198"/>
    </contour>
  </outline>
</glyph>
<glyph name="z" format="1">
  <advance width="363"/>
  <unicode hex="007A"/>
  <outline>
    <contour>
      <point x="119" y="0" type="curve" smooth="yes"/>
      <point x="221" y="0"/>
      <point x="288" y="-5"/>
      <point x="315" y="-5" type="curve" smooth="yes"/>
      <point x="323" y="-5"/>
      <point x="328" y="0"/>
      <point x="330" y="9" type="curve" smooth="yes"/>
      <point x="335" y="25"/>
      <point x="360" y="110"/>
      <point x="360" y="118" type="curve" smooth="yes"/>
      <point x="360" y="129"/>
      <point x="344" y="138"/>
      <point x="335" y="124" type="curve" smooth="yes"/>
      <point x="318" y="97"/>
      <point x="290" y="45"/>
      <point x="280" y="26" type="curve" smooth="yes"/>
      <point x="270" y="8"/>
      <point x="253" y="8"/>
      <point x="238" y="8" type="curve" smooth="yes"/>
      <point x="124" y="8" type="line" smooth="yes"/>
      <point x="115" y="8"/>
      <point x="108" y="14"/>
      <point x="115" y="23" type="curve" smooth="yes"/>
      <point x="296" y="262" type="line" smooth="yes"/>
      <point x="312" y="280"/>
      <point x="328" y="292"/>
      <point x="344" y="306" type="curve"/>
      <point x="348" y="310"/>
      <point x="342" y="318"/>
      <point x="337" y="318" type="curve" smooth="yes"/>
      <point x="279" y="318"/>
      <point x="226" y="315"/>
      <point x="160" y="315" type="curve" smooth="yes"/>
      <point x="152" y="315"/>
      <point x="138" y="314"/>
      <point x="124" y="314" type="curve" smooth="yes"/>
      <point x="107" y="314"/>
      <point x="89" y="315"/>
      <point x="83" y="320" type="curve" smooth="yes"/>
      <point x="78" y="325"/>
      <point x="72" y="329"/>
      <point x="69" y="329" type="curve" smooth="yes"/>
      <point x="65" y="329"/>
      <point x="54" y="321"/>
      <point x="54" y="311" type="curve" smooth="yes"/>
      <point x="54" y="286"/>
      <point x="41" y="235"/>
      <point x="35" y="217" type="curve" smooth="yes"/>
      <point x="30" y="204"/>
      <point x="50" y="196"/>
      <point x="57" y="207" type="curve" smooth="yes"/>
      <point x="71" y="225"/>
      <point x="83" y="271"/>
      <point x="97" y="289" type="curve" smooth="yes"/>
      <point x="104" y="297"/>
      <point x="117" y="308"/>
      <point x="137" y="308" type="curve" smooth="yes"/>
      <point x="244" y="308" type="line" smooth="yes"/>
      <point x="259" y="308"/>
      <point x="256" y="302"/>
      <point x="253" y="298" type="curve"/>
      <point x="196" y="225"/>
      <point x="120" y="128"/>
      <point x="62" y="56" type="curve" smooth="yes"/>
      <point x="48" y="41"/>
      <point x="25" y="16"/>
      <point x="25" y="12" type="curve" smooth="yes"/>
      <point x="25" y="7"/>
      <point x="34" y="-5"/>
      <point x="39" y="-5" type="curve" smooth="yes"/>
      <point x="56" y="-5"/>
      <point x="91" y="0"/>
    </contour>
  </outline>
</glyph>
<glyph name="braceleft" format="1">
  <advance width="376"/>
  <unicode hex="007B"/>
  <outline>
    <contour>
      <point x="344" y="-148" type="curve" smooth="yes"/>
      <point x="322" y="-146"/>
      <point x="297" y="-141"/>
      <point x="290" y="-124" type="curve" smooth="yes"/>
      <point x="237" y="-100"/>
      <point x="215" y="-98"/>
      <point x="215" y="11" type="curve" smooth="yes"/>
      <point x="215" y="82"/>
      <point x="222" y="126"/>
      <point x="209" y="175" type="curve" smooth="yes"/>
      <point x="208" y="227"/>
      <point x="155" y="272"/>
      <point x="106" y="280" type="curve"/>
      <point x="117" y="286"/>
      <point x="118" y="296"/>
      <point x="121" y="311" type="curve"/>
      <point x="162" y="325"/>
      <point x="222" y="385"/>
      <point x="222" y="451" type="curve" smooth="yes"/>
      <point x="222" y="512"/>
      <point x="225" y="554"/>
      <point x="247" y="608" type="curve" smooth="yes"/>
      <point x="250" y="705"/>
      <point x="284" y="698"/>
      <point x="336" y="709" type="curve" smooth="yes"/>
      <point x="343" y="713"/>
      <point x="353" y="714"/>
      <point x="351" y="715" type="curve" smooth="yes"/>
      <point x="331" y="714"/>
      <point x="303" y="707"/>
      <point x="289" y="686" type="curve" smooth="yes"/>
      <point x="222" y="668"/>
      <point x="146" y="631"/>
      <point x="146" y="544" type="curve" smooth="yes"/>
      <point x="146" y="476"/>
      <point x="149" y="434"/>
      <point x="138" y="382" type="curve" smooth="yes"/>
      <point x="135" y="316"/>
      <point x="134" y="289"/>
      <point x="67" y="284" type="curve" smooth="yes"/>
      <point x="56" y="282"/>
      <point x="52" y="280"/>
      <point x="54" y="279" type="curve" smooth="yes"/>
      <point x="63" y="277"/>
      <point x="82" y="269"/>
      <point x="88" y="255" type="curve" smooth="yes"/>
      <point x="151" y="227"/>
      <point x="153" y="216"/>
      <point x="153" y="119" type="curve" smooth="yes"/>
      <point x="153" y="50"/>
      <point x="164" y="7"/>
      <point x="184" y="-49" type="curve" smooth="yes"/>
      <point x="186" y="-123"/>
      <point x="265" y="-146"/>
      <point x="339" y="-150" type="curve" smooth="yes"/>
      <point x="346" y="-147"/>
      <point x="348" y="-149"/>
    </contour>
  </outline>
</glyph>
